# xmcd
#
# Track frame offsets: 
#        150
#        16670
#        38415
#        59075
#        75705
#        85777
#        98402
#        121827
#        139020
#        156747
#
# Disc length: 2319 seconds
#
# Revision: 2
# Processed by: cddbd v1.5.2PL0 Copyright (c) Steve Scherf et al.
# Submitted via: ExactAudioCopy v1.0b4
#
DISCID=71090d0a
DTITLE=Memphis Slim - Steady Rolling Blues
DYEAR=1961
DGENRE=Blues
TTITLE0=Mean Mistreatin' Mama
TTITLE1=Soon One Morning
TTITLE2=Steady Rolling Blues
TTITLE3=Celeste's Boogie
TTITLE4=Big Legged Woman
TTITLE5=Rock Me Baby
TTITLE6=Goin' Down Slow
TTITLE7=Sweet Root Man
TTITLE8=Mr. Freddie Boogie
TTITLE9=Three Women Blues
EXTD=Bluesville OBCCD 523 2 (BV-1075)
EXTT0=
EXTT1=
EXTT2=
EXTT3=
EXTT4=
EXTT5=
EXTT6=
EXTT7=
EXTT8=
EXTT9=
PLAYORDER=
